<svg width="203.21747436523438px" height="121.49003295898437px" xmlns="http://www.w3.org/2000/svg" viewBox="148.39126281738282 14.254983520507814 203.21747436523438 121.49003295898437" style="background: rgba(0, 0, 0, 0);" preserveAspectRatio="xMidYMid"><defs><filter id="editing-extrusion" x="-100%" y="-100%" width="300%" height="300%"><feFlood result="color1" flood-color="#444"></feFlood><feConvolveMatrix order="8,8" divisor="1" kernelMatrix="1 0 0 0 0 0 0 0 0 1 0 0 0 0 0 0 0 0 1 0 0 0 0 0 0 0 0 1 0 0 0 0 0 0 0 0 1 0 0 0 0 0 0 0 0 1 0 0 0 0 0 0 0 0 1 0 0 0 0 0 0 0 0 1" in="SourceAlpha" result="extrude"></feConvolveMatrix><feComposite in="color1" in2="extrude" result="comp-extrude" operator="in"></feComposite><feOffset dx="4" dy="4" in="comp-extrude" result="offset-extrude"></feOffset><feMerge><feMergeNode in="offset-extrude"></feMergeNode><feMergeNode in="SourceGraphic"></feMergeNode></feMerge></filter></defs><g filter="url(#editing-extrusion)"><g transform="translate(182.7049990594387, 97.30500030517578)"><path d="M24.96-4.80L24.96-4.80L24.96-4.80Q24.96-9.28 26.75-18.24L26.75-18.24L17.28-18.24L13.76 0L0.38 0L8.51-42.24L22.02-42.24L18.30-23.36L27.78-23.36L31.30-42.24L44.80-42.24L44.80-42.24Q43.90-37.50 42.75-32.19L42.75-32.19L40.58-21.76L40.58-21.76Q38.14-9.60 38.14-4.29L38.14-4.29L38.14-4.29Q38.14-2.11 38.85-0.90L38.85-0.90L38.85-0.90Q35.65 1.28 31.90 1.28L31.90 1.28L31.90 1.28Q28.16 1.28 26.56-0.51L26.56-0.51L26.56-0.51Q24.96-2.30 24.96-4.80ZM59.39 0L45.76 0L53.06-38.91L53.76-42.24L67.46-42.24L59.39 0ZM85.38-3.78L85.38-3.78L85.38-3.78Q83.65 1.28 76.99 1.28L76.99 1.28L76.99 1.28Q72.06 1.28 68.67-4.61L68.67-4.61L68.67-4.61Q65.22-10.50 64.58-20.10L64.58-20.10L64.58-20.10Q71.62-32.96 76.48-38.27L76.48-38.27L76.48-38.27Q81.15-43.33 86.02-43.33L86.02-43.33L86.02-43.33Q88.64-43.33 90.53-41.92L90.53-41.92L90.53-41.92Q92.42-40.51 92.86-38.27L92.86-38.27L92.86-38.27Q90.69-37.38 89.66-36.67L89.66-36.67L89.66-36.67Q87.10-34.75 83.65-30.46L83.65-30.46L77.82-23.49L77.82-23.49Q76.42-21.82 75.84-21.06L75.84-21.06L75.84-21.06Q76.80-15.68 79.68-10.37L79.68-10.37L79.68-10.37Q82.43-5.31 85.38-3.78ZM97.41 0L90.37 0L98.05-42.24L111.81-42.24L121.79-13.18L127.10-42.24L134.21-42.18L126.40 0L111.74 0L102.53-27.97L97.41 0Z" fill="#ccc"></path></g></g><style>text {
  font-size: 64px;
  font-family: Arial Black;
  dominant-baseline: central;
  text-anchor: middle;
}</style></svg>