<?xml version="1.0" standalone="no"?>
<!DOCTYPE svg PUBLIC "-//W3C//DTD SVG 20010904//EN"
 "http://www.w3.org/TR/2001/REC-SVG-20010904/DTD/svg10.dtd">
<svg version="1.0" xmlns="http://www.w3.org/2000/svg"
 width="658.000000pt" height="658.000000pt" viewBox="0 0 658.000000 658.000000"
 preserveAspectRatio="xMidYMid meet">
<metadata>
Created by potrace 1.14, written by Peter Selinger 2001-2017
</metadata>
<g transform="translate(0.000000,658.000000) scale(0.100000,-0.100000)"
fill="#000000" stroke="none">
<path d="M1740 5113 c-47 -43 -57 -110 -42 -279 11 -117 41 -309 58 -367 3 -9
32 -36 65 -59 64 -45 65 -59 3 -33 -20 8 -39 13 -42 11 -5 -6 38 -159 67 -236
18 -48 28 -60 73 -87 77 -46 152 -73 247 -88 46 -8 85 -16 87 -18 3 -2 -15
-10 -40 -16 -63 -16 -196 -14 -245 4 -22 8 -41 11 -41 7 0 -13 89 -172 116
-207 50 -66 42 -65 600 -65 l504 0 0 -151 c0 -97 4 -148 10 -144 5 3 55 60
111 126 l100 119 -64 98 c-35 53 -92 132 -126 175 -73 91 -200 227 -212 227
-5 0 -9 -17 -10 -37 0 -21 -4 -56 -8 -78 l-9 -40 -1 38 c0 21 -8 69 -17 107
-14 65 -18 70 -62 99 -70 45 -119 62 -164 59 -57 -4 -78 -35 -87 -129 l-7 -74
-23 60 c-23 60 -70 253 -71 290 -1 13 -32 44 -91 89 -195 150 -378 333 -510
511 -87 115 -86 115 -114 115 -13 0 -38 -12 -55 -27z"/>
<path d="M3130 4714 c-102 -53 -243 -125 -315 -161 l-129 -65 69 -64 c39 -36
84 -76 102 -90 l31 -25 363 182 364 181 -135 69 c-74 37 -142 68 -150 68 -8 0
-98 -43 -200 -95z"/>
<path d="M3920 4749 c-52 -28 -228 -118 -390 -202 -162 -83 -313 -161 -334
-173 l-39 -22 314 -157 c173 -87 316 -159 317 -160 2 -2 -35 -79 -82 -172 -47
-93 -86 -172 -86 -176 0 -4 87 -7 194 -7 l193 0 49 95 c27 52 52 95 57 95 4 0
88 -40 187 -90 195 -97 231 -107 267 -67 39 41 303 561 303 595 0 72 3 71
-432 288 -224 112 -411 204 -415 204 -5 0 -51 -23 -103 -51z"/>
<path d="M1595 3922 c-363 -187 -1133 -585 -1373 -709 -100 -52 -182 -98 -182
-103 0 -10 116 -72 595 -317 198 -102 446 -229 550 -283 105 -54 473 -242 818
-420 346 -177 742 -380 880 -451 139 -71 299 -153 355 -182 l104 -52 181 94
c100 51 418 217 707 368 289 151 579 303 645 338 66 34 311 163 545 285 234
122 490 256 570 298 80 41 204 106 275 144 72 38 172 90 223 116 54 27 91 52
90 60 -4 16 -43 37 -961 506 -396 202 -722 364 -725 361 -4 -4 -9 -53 -10
-109 -3 -76 0 -105 10 -113 12 -9 124 -67 743 -383 325 -166 507 -262 503
-265 -2 -1 -127 -66 -278 -145 -151 -78 -311 -162 -355 -185 -44 -23 -251
-131 -460 -240 -209 -108 -407 -212 -440 -230 -33 -18 -132 -70 -220 -115
-176 -91 -764 -398 -943 -492 l-113 -59 -252 132 c-139 73 -286 150 -327 172
-207 109 -295 155 -530 277 -140 73 -291 152 -335 175 -44 24 -235 124 -425
223 -190 99 -451 236 -580 304 -129 68 -261 137 -292 153 -32 16 -54 33 -50
37 4 4 279 145 612 314 333 168 615 313 628 320 21 14 22 20 22 144 0 72 -3
130 -7 130 -5 0 -93 -44 -198 -98z"/>
<path d="M2833 3654 c-15 -6 -17 -369 -6 -836 l6 -278 143 0 144 0 2 233 3
232 164 -205 c90 -113 175 -217 189 -232 l26 -28 156 0 c86 0 160 3 163 6 9 9
-9 33 -241 323 -179 224 -201 256 -188 270 7 9 102 124 209 255 151 185 194
243 185 253 -8 10 -51 13 -174 13 l-164 0 -28 -32 c-56 -63 -168 -194 -237
-277 l-70 -83 -5 193 -5 194 -130 2 c-71 1 -136 -1 -142 -3z"/>
<path d="M3932 3103 l3 -558 145 0 145 0 -2 318 c-2 174 -1 317 2 317 2 0 115
-144 251 -320 l247 -320 128 0 129 0 -2 558 -3 557 -140 0 -140 0 -5 -304 -5
-303 -125 162 c-69 89 -167 217 -218 283 -52 67 -102 132 -113 145 -18 21 -26
22 -159 22 l-140 0 2 -557z"/>
<path d="M1694 3635 c-2 -5 -3 -253 -2 -550 l3 -540 143 -3 142 -3 0 216 0
215 175 0 175 0 2 -187 c2 -219 1 -214 11 -231 11 -17 283 -17 288 1 2 6 3
256 1 555 l-3 543 -147 -3 -147 -3 -3 -197 -2 -198 -175 0 -175 0 -2 198 -3
197 -139 0 c-86 0 -140 -3 -142 -10z"/>
<path d="M2677 3643 c-3 -5 -7 -165 -11 -358 l-6 -350 51 -42 c29 -23 56 -40
60 -38 4 3 8 80 8 173 0 92 4 269 7 395 l7 227 -56 0 c-31 0 -58 -3 -60 -7z"/>
<path d="M3665 3388 c-115 -143 -211 -264 -213 -268 -1 -4 34 -53 79 -110 l81
-103 139 269 138 269 1 103 c0 56 -3 102 -7 102 -5 0 -102 -118 -218 -262z"/>
<path d="M1225 3414 c-187 -96 -400 -205 -472 -242 -73 -37 -133 -70 -133 -74
0 -3 116 -66 258 -139 141 -72 353 -181 470 -241 117 -61 215 -108 216 -106 2
1 6 28 9 59 l5 57 -331 168 c-183 92 -344 175 -360 184 -34 21 -31 24 88 82
178 88 586 300 603 314 2 1 6 28 9 58 4 43 2 56 -8 56 -8 -1 -167 -80 -354
-176z"/>
<path d="M5090 3528 l0 -63 333 -169 c182 -93 340 -175 351 -182 16 -11 -22
-33 -335 -189 -195 -98 -355 -178 -355 -179 -7 -7 -8 -116 -2 -116 23 0 961
471 952 479 -5 4 -153 81 -329 171 -176 90 -384 196 -462 236 -78 41 -145 74
-148 74 -3 0 -5 -28 -5 -62z"/>
<path d="M3140 2828 c0 -92 1 -94 40 -153 21 -32 38 -61 36 -63 -2 -2 -18 4
-35 12 -16 9 -32 16 -36 16 -3 0 -5 -27 -5 -60 l0 -59 -61 -3 -61 -3 -90 -179
c-83 -165 -89 -180 -73 -192 46 -34 278 -145 286 -137 5 5 63 114 129 243 67
129 130 254 142 276 l22 41 -138 172 c-76 94 -142 174 -147 177 -5 3 -9 -36
-9 -88z"/>
<path d="M3477 2508 c16 -27 82 -119 183 -253 57 -77 105 -141 106 -143 1 -2
31 12 68 30 l66 32 -17 26 c-9 14 -63 91 -121 173 -104 146 -105 147 -143 147
-22 0 -39 -2 -39 -5 0 -3 16 -28 36 -55 20 -28 34 -53 31 -56 -3 -3 -24 22
-47 55 -41 59 -44 61 -87 61 -33 0 -42 -3 -36 -12z"/>
<path d="M4475 2434 c-109 -55 -676 -344 -921 -470 -122 -63 -228 -114 -237
-114 -9 0 -67 26 -129 58 -62 33 -332 170 -600 306 l-486 247 -114 -3 -113 -3
240 -124 c132 -68 267 -138 300 -156 33 -18 150 -78 260 -135 110 -57 299
-155 420 -218 l220 -115 80 42 c44 23 195 101 335 173 140 73 332 172 425 220
94 48 268 139 388 200 242 125 242 126 87 127 -78 0 -91 -3 -155 -35z"/>
</g>
</svg>
