<svg id="shield" data-name="shield" xmlns="http://www.w3.org/2000/svg" viewBox="0 0 118.35 145.54"><defs><linearGradient id="Gold39" x1="0" x2="0" y1="0" y2="1"><stop offset="0%" stop-color="#A4D65E"/><stop offset="39%" stop-color="#A4D65E"/><stop offset="39.1%" stop-color="#fff"/><stop offset="100%" stop-color="#fff"/></linearGradient><linearGradient id="Bish" x1="0" x2="0" y1="0" y2="1" gradientTransform="rotate(22)"><stop offset="0%" stop-color="#A4D65E"/><stop offset="35%" stop-color="#A4D65E"/><stop offset="45%" stop-color="transparent"/><stop offset="100%" stop-color="transparent"/></linearGradient><clipPath id="quillclip"><path d="M0 60h180v80H0z"/></clipPath><style>.cls-1{fill:#fff}.cls-3{fill:#104735}</style></defs><path id="shield_outline" transform="matrix(.22 0 0 .22 -8 -8)" d="M322 39.14h24l17 .86h14l21 1 20 1 10 .91 24 1.18 48 3.95 17 1.79 37 3.75c3.07.42 14.34.94 15.98 3.02 1.25 1.59 1.02 5.41 1.02 7.4v110l-1 15v51l-1 17v51l-1 17v38l-.91 12c-1.62 23.52-5.97 46.58-13.44 69-23.6 70.79-76.17 132.21-133.65 178.2-27.87 22.29-51.38 38.09-82 56.2l-22 12.18c-2.77 1.56-10.17 5.77-13 6.05-3.45.32-7.94-2.35-11-3.88l-22-12.03c-30.85-17.57-59.79-38.9-87-61.64C125.86 571.31 76.11 507.48 55.43 435c-5.27-18.47-10.4-46.92-10.43-66v-27l-1-17v-53l-1-15v-50l-1-17v-50l-1-17V64c0-2.3-.41-6.26 1.57-7.83 1.7-1.34 12.64-2.04 15.43-2.33l36-3.81 32-2.86 48-3.26L206 42l10-.96h12L243 40l23-.86h56Z"/><path id="sunrays" class="cls-1" d="M61.47 6.24A519.08 519.08 0 0 0 6 9.73v14.44l.71 47.54C6.36 110.05 44 133.87 56.09 140.5l3.82 2 3.63-2c12.45-6.64 51.32-30.45 51.32-68.72l.71-48.89V9.73a476.82 476.82 0 0 0-54.1-3.49" transform="translate(-1.6 -1.87)"/><path id="whitespace" clip-path="url(#quillclip)" class="cls-1" d="M61.47 6.24A519.08 519.08 0 0 0 6 9.73v14.44l.71 47.54C6.36 110.05 44 133.87 56.09 140.5l3.82 2 3.63-2c12.45-6.64 51.32-30.45 51.32-68.72l.71-48.89V9.73a476.82 476.82 0 0 0-54.1-3.49" transform="translate(-1.6 -1.87)"/><path id="quillandhammer" class="cls-3" d="m83.38 87.44-5.31-5.74 3.12-2.94-3.33-3.56-2 1.86.29 2.88-7.06-7.54-2.67-.09-5.9 5.24-.07 2.51 5.68 6.16-.29.27-1.08 1-6.88 6.61-20.14-21.73-1.47-1.47-.33 10.5a5.42 5.42 0 0 0 .87 3.6l.24.31a7.47 7.47 0 0 0 3.29 2.4A23.52 23.52 0 0 0 47 89.1l1.59.08-1.4.77-.21.1a8.8 8.8 0 0 1-3.58.56 22.56 22.56 0 0 1-4.35-.61c.27.3.61.65 1 1l.27.26A10.09 10.09 0 0 0 46 93.89c2.13.4 6.12 1 6.15 1l1.38.19-1.11.59-.12.06a8.2 8.2 0 0 1-3.85.66 18.69 18.69 0 0 1-4-.57l.75.82.29.31a9.64 9.64 0 0 0 4.43 2.3c.62.18 1.25.33 1.87.47 2.21.48 4.18.69 4.2.69l1.44.15-.85.46-.42.23a7.87 7.87 0 0 1-4.13.67 15 15 0 0 1-2.25-.32l-10 9.37 3.34 3.55 10.21-9.58a20.15 20.15 0 0 0 8.13 2.26l4.41.15 7.48 7.77h3.92l-16.15-17.5L68.21 91l1-.93.24-.23.19-.17 5.29 5.69 2.68.08 5.89-5.23.07-2.51Z" transform="translate(-1.6 -1.87)"/><path id="shieldshape" class="cls-3" d="m109.54 57.59-.08-.06-.28-.17c-3.87-2.66-11.43-9.87-11.84-9.87-.08 0-26.85 9.74-26.85 9.74a3.37 3.37 0 0 1-.65.09L68.52 57l-5-1.15-.7-.16-.71-.17h-.23l-.63-.15-.62-.14-1.83-.42-.51-.12-.87-.2-.42-.14-1.15-.27-.5-.08-.77-.18-.47-.1-.29-.07-.83.43-.43.23-.67.35-.43.22-.88.46-.43.23-.68.36-.44.23-1.21.63-.52.21-.94.5h-7.04c-11.68 0-25.21.74-27.51.89l.48-12.73 27.5 10.09.15-.45.17-.45.33-.75.21-.43.22-.42-28.34-14.43.12-3.18c3.36-.35 7.89-.81 13.23-1.25l17.21 15.77.33-.35.35-.33.61-.54.38-.3.38-.28-11.4-14.56c2.69-.18 5.52-.35 8.44-.5l6.28 13.22.44-.16.45-.16.79-.23.46-.12.47-.09-3-12.71 2.28-.05c1.87 0 3.75-.1 5.64-.13L54.85 45.5h.47l.48.05c.27 0 .54.08.81.12l.47.1.46.1 3.89-13.07c2.67 0 5.33 0 8 .09l-8.36 14.38.42.24.41.24.68.46c.13.09.26.18.38.28l.35.27.25-.33 13-15.33c5.15.21 10.08.5 14.6.82L66 51.51c.09.13.19.25.28.39s.18.26.26.39.15.23.22.34l.21.36c.08.14.16.28.23.42s.15.28.22.42l35.5-18.91c2 .18 3.78.37 5.36.53l.62.07.68 22.06ZM79 58.37l1.29-.45c3.82-1.37 14.6-5.31 14.6-5.31l-9.57 6.23-6.32-.47Zm30.28 17.41a51.45 51.45 0 0 1-1.15 7.22 58.88 58.88 0 0 1-4.76 13.31 62.57 62.57 0 0 1-11.87 16.34c-16.86 16.88-31.75 20.78-31.75 20.78s-13.91-4.36-30.15-20.59a64.57 64.57 0 0 1-12-16.32 58.65 58.65 0 0 1-4.5-11.89A53.8 53.8 0 0 1 11.79 78a33.23 33.23 0 0 1-.33-5.21l.33-.18A58.36 58.36 0 0 1 23 68.53a115.81 115.81 0 0 1 16.88-3.19 160.41 160.41 0 0 1 18.76-1q5.11 0 9.75.23C92.75 65.7 107 71 109.11 71.81l.27.11a30.18 30.18 0 0 1-.13 3.86M85.18 7.2h-.8c-5.83-.33-12.1-.59-18.49-.67H58.35c-5.53 0-11 .24-16.3.49h-.96c-2 .1-3.91.21-5.79.33h-.99c-16 1-28.17 2.53-28.17 2.53v14.43l.17 11.36v1.07l.09 5.73v1l.42 28.2a59 59 0 0 0 6.22 26.63c11.13 22.68 34.11 37 43 41.92l3.81 2 3.62-2c9.27-4.94 33.25-19.45 44.77-42.38a57.58 57.58 0 0 0 6.37-26.1l.52-35.51.25-13.23V9.92s-13-1.7-30.2-2.72" transform="translate(-1.6 -1.87)"/><path id="bishoppeak" class="cls-3" transform="matrix(.208 0 0 .208 -4.75 -4)" d="M352 294c0-2.04-.26-5.63.99-7.3 1.22-1.63 5.08-2.77 7.01-3.51l19-6.88 77-27.98 18-6.52c2.78-1.06 7.05-2.94 10-2.12 2.62.72 6.88 4.6 9 6.46l15 13.13 21 17.92c12.26 9.86 12.98 7.86 13 17.8v61l-35-11.12c-35.52-9.37-71.46-16.14-108-20.04L352 321v-27Zm73-14.69L394 291l31 2.02 14-8.07L471 263l-46 16.31Z"/><path class="l_b_d cls-1" d="m12.6 18.4 1.81-.21v6.52l3.17-.35v1.52c-1.66.18-3.32.36-5 .56ZM19.62 17.63l5-.47v1.52l-3.21.3v1.61l2.73-.25v1.52l-2.73.26V24l3.33-.31v1.52c-1.71.15-3.43.32-5.15.49ZM27.82 21.6l3.86-.29v1.41l-3.86.28v-1.4m.86-4.78 2.17-.16q1.26 3.91 2.52 7.86l-1.92.13-1.05-4c-.22-.79-.44-1.72-.65-2.55h-.05c-.2.86-.41 1.82-.63 2.64-.36 1.38-.71 2.77-1.06 4.15l-1.85.15 2.52-8.24M37.51 20.89l1.26-1.23 2.57 4.4-2 .1-1.79-3.27m.19-1c.95-.05 1.47-.48 1.47-1.28s-.52-1-1.47-1l-.93.05V20l.93-.06M35 16.38l2.89-.18c1.71-.09 3.11.43 3.11 2.34s-1.4 2.71-3.11 2.81l-1.07.06v2.89l-1.82.11ZM42.91 16l1.86-.08 2.1 3.92.8 1.74c-.09-.85-.24-2-.24-2.91v-2.89l1.74-.06v8l-1.87.06-2.1-3.94c-.26-.57-.53-1.14-.79-1.72h-.05c.08.89.23 2 .23 2.9v2.86l-1.68.12v-8M57.66 22.21c1 0 1.5-.36 1.5-1.1s-.5-1-1.5-1h-1v2.08h1m-.17-3.42c.89 0 1.28-.38 1.28-1s-.42-.77-1.26-.77h-.87v1.8h.85m-2.67-3.2h2.76c1.67 0 3 .45 3 2a1.88 1.88 0 0 1-1.06 1.74v.05a1.83 1.83 0 0 1 1.45 1.89c0 1.63-1.38 2.36-3.13 2.38h-3ZM64.17 20.74c-.81-1.73-1.62-3.45-2.42-5.18h1.94l.72 1.85c.22.61.43 1.16.66 1.79h.05c.22-.62.46-1.17.68-1.77s.47-1.23.71-1.84h1.9q-1.2 2.61-2.41 5.17v2.87h-1.82ZM74.89 22.37c1.37.05 2.29-.58 2.29-2.5s-.92-2.56-2.29-2.61h-.34v5.11h.34m-2.16-6.64 2.27.07c2.46.09 4 1.39 4 4.15s-1.59 4-3.94 3.89l-2.38-.07ZM86.07 20.32c0-1.61-.69-2.61-1.79-2.67s-1.78.85-1.78 2.46.69 2.67 1.78 2.74 1.79-.92 1.79-2.53M80.63 20c0-2.62 1.49-4.06 3.65-3.94s3.66 1.74 3.66 4.36-1.49 4.1-3.66 4-3.65-1.77-3.65-4.42M89.82 16.58l1.82.14v8l-1.82-.13ZM94.35 16.93l1.86.16q1 2.09 2.09 4.18c.27.61.53 1.23.8 1.84h.05c-.09-.85-.24-2-.24-2.94v-2.84l1.73.16v8l-1.86-.18q-1-2.1-2.09-4.19l-.79-1.83h-.05c.08.89.23 2 .23 2.93v2.85L94.35 25ZM102.5 21.74c0-2.66 1.77-4 3.91-3.79a3.93 3.93 0 0 1 2.53 1.33l-1 1.06a2.28 2.28 0 0 0-1.51-.81c-1.23-.14-2.11.74-2.11 2.35s.75 2.69 2.25 2.86a1.33 1.33 0 0 0 .85-.15v-1.38c-.44-.06-.88-.1-1.33-.15v-1.49l2.94.34v3.7a3.48 3.48 0 0 1-2.64.67 4.27 4.27 0 0 1-3.93-4.54" transform="translate(-1.6 -1.87)"/></svg>