<?xml version="1.0" standalone="no"?>
<!DOCTYPE svg PUBLIC "-//W3C//DTD SVG 20010904//EN"
 "http://www.w3.org/TR/2001/REC-SVG-20010904/DTD/svg10.dtd">
<svg version="1.0" xmlns="http://www.w3.org/2000/svg"
 width="180.000000pt" height="180.000000pt" viewBox="0 0 180.000000 180.000000"
 preserveAspectRatio="xMidYMid meet">

<g transform="translate(0.000000,180.000000) scale(0.100000,-0.100000)"
fill="#000000" stroke="none">
<path d="M473 1384 c-3 -8 -3 -47 0 -87 4 -58 9 -74 27 -89 16 -13 18 -18 7
-18 -13 0 -13 -6 -4 -36 12 -38 51 -64 99 -64 19 0 20 -2 8 -10 -8 -5 -27 -10
-42 -10 -33 0 -33 -3 -12 -35 16 -25 18 -25 160 -25 l144 0 0 -41 c0 -44 8
-44 40 0 l20 29 -47 61 c-27 33 -51 60 -55 61 -3 0 -9 -8 -11 -17 -3 -11 -5
-8 -6 9 -2 51 -81 78 -81 28 0 -32 -18 -14 -26 25 -4 26 -31 59 -105 135 -55
55 -101 100 -104 100 -3 0 -8 -7 -12 -16z"/>
<path d="M815 1268 l-79 -40 27 -24 28 -24 92 46 c51 26 94 48 95 49 6 5 -56
35 -70 35 -7 -1 -49 -19 -93 -42z"/>
<path d="M988 1254 c-60 -31 -108 -59 -108 -63 0 -4 36 -25 80 -46 44 -21 80
-41 80 -42 0 -2 -9 -21 -20 -43 -11 -22 -20 -42 -20 -45 0 -3 23 -5 50 -5 28
0 50 4 50 8 0 5 6 16 13 26 13 17 16 17 65 -8 28 -14 55 -26 59 -26 10 0 93
153 93 171 0 11 -218 131 -233 129 -1 -1 -50 -26 -109 -56z m-41 -51 c-4 -3
-2 -12 4 -20 13 -15 1 -17 -20 -4 -15 9 -7 31 11 31 6 0 8 -3 5 -7z m353 -8
c6 -8 10 -19 8 -24 -1 -5 -11 2 -21 15 -19 26 -8 34 13 9z"/>
<path d="M248 972 c-126 -64 -228 -119 -228 -122 0 -5 884 -460 894 -460 11 0
876 454 876 460 0 6 -432 230 -444 230 -4 0 -6 -12 -4 -27 3 -25 20 -37 170
-113 93 -47 168 -87 168 -90 -1 -9 -752 -395 -769 -395 -19 0 -761 385 -761
395 0 3 77 45 170 93 161 84 170 90 170 118 0 16 -3 29 -7 29 -5 0 -110 -53
-235 -118z"/>
<path d="M647 994 c-4 -4 -7 -29 -7 -56 l0 -48 -50 0 -50 0 0 50 0 50 -40 0
-40 0 0 -62 c0 -35 3 -100 7 -145 l6 -83 33 0 33 0 3 58 3 57 45 0 45 0 3 -57
3 -58 40 0 40 0 -3 148 -3 147 -30 3 c-17 2 -34 0 -38 -4z"/>
<path d="M735 987 c-11 -28 0 -190 13 -195 9 -3 12 21 12 97 0 91 -11 135 -25
98z"/>
<path d="M775 989 c-4 -5 -4 -73 0 -150 l8 -139 33 0 34 0 0 63 1 62 27 -30
c15 -17 39 -45 53 -63 23 -30 30 -33 67 -30 l42 3 -59 74 -59 74 54 67 c30 37
54 70 54 74 0 3 -19 6 -42 6 -37 0 -46 -5 -89 -52 l-48 -53 -1 53 0 52 -34 0
c-19 0 -38 -5 -41 -11z"/>
<path d="M1080 850 l0 -150 35 0 34 0 3 88 3 87 68 -87 c62 -80 72 -88 103
-88 l34 0 0 150 0 150 -35 0 -34 0 -3 -87 -3 -87 -68 87 c-62 79 -71 87 -103
87 l-34 0 0 -150z"/>
<path d="M1010 934 c-64 -82 -64 -81 -41 -110 l20 -25 36 71 c20 40 35 83 33
96 -3 23 -7 20 -48 -32z"/>
<path d="M310 919 c-63 -33 -119 -64 -123 -68 -7 -7 219 -131 237 -131 3 0 6
6 6 13 0 7 -43 34 -95 60 -52 26 -95 50 -95 55 0 4 43 29 95 55 57 28 95 53
95 62 0 8 -1 15 -2 15 -2 0 -55 -28 -118 -61z"/>
<path d="M1390 960 c0 -6 43 -31 95 -57 52 -26 95 -50 95 -53 0 -3 -43 -27
-95 -53 -57 -28 -95 -53 -95 -62 0 -11 35 2 125 47 69 35 125 65 125 68 0 7
-227 120 -240 120 -6 0 -10 -5 -10 -10z"/>
<path d="M860 768 c0 -15 5 -30 10 -33 6 -3 10 -11 10 -16 0 -6 -4 -7 -10 -4
-5 3 -10 -1 -10 -9 0 -9 -7 -16 -15 -16 -8 0 -26 -22 -40 -50 l-25 -50 40 -20
40 -20 35 70 c19 38 35 75 35 82 -1 7 -16 31 -35 53 -34 40 -35 40 -35 13z"/>
<path d="M960 685 c0 -4 16 -29 35 -56 23 -31 41 -46 50 -42 20 7 20 8 -17 59
-33 46 -45 55 -34 27 6 -15 4 -15 -14 2 -11 10 -20 15 -20 10z"/>
<path d="M531 666 c2 -2 88 -47 190 -100 l186 -96 189 98 c126 64 182 98 168
100 -12 2 -97 -34 -191 -82 l-169 -84 -164 84 c-90 46 -175 84 -188 84 -14 0
-23 -2 -21 -4z"/>
</g>
</svg>
